#!OML:ASF F:\VICON\USERDATA\INSTALL\rory3\rory3.ASF
:FULLY-SPECIFIED
:DEGREES
106
root 0.6147788208172804 17.836132285449814 32.909698778456956 0.874592730767743 -0.37210998319616384 -1.424097860003613
lfemur -24.642405652236743 2.7409184765630377 -23.353064979002788
ltibia 44.36281615587596
lfoot 1.5394565273281864 -8.371308926404256
ltoes -7.565769410452794
rfemur -14.116380639255521 3.3572406397202794 27.979513867274772
rtibia 64.16895098660231
rfoot 3.930674659626765 -6.1855144926820405
rtoes -1.0727885326235052
lowerback 14.201568138316429 1.3041648655690286 2.4336498654209766
upperback -1.3081395813902006 3.0694991728865277 1.2318707805136992
thorax -9.289378188399633 0.832014543031669 -0.6355722874506186
lowerneck -19.85063170617735 -4.477909050164812 -2.4220682317674216
upperneck 12.461591094029965 -6.036358212215162 5.831823983807238
head 7.333784817536754 -2.6253886815160214 1.454222472265983
lclavicle 2.9801515526439752e-15 1.1900897868484632e-16
lhumerus -50.76129997980552 -10.658206057047114 95.37402132889227
lradius 112.53145370797172
lwrist 34.14442307441316
lhand -20.698185318037453 3.037091456566619
lfingers 7.125019999999999
lthumb 5.585088047927687 32.63154936849778
rclavicle 2.9801381671163078e-15 1.1900166246856291e-16
rhumerus -45.268654513811484 14.063427626082593 -97.75554376064947
rradius 110.08642245928601
rwrist -15.164386173053494
rhand -15.821187310684417 38.52571322848514
rfingers 7.125019999999999
rthumb 10.478045047018307 8.318641523789692
107
root 0.6062546851187987 17.77746448537225 32.55855877606242 0.7387215590163021 -0.3598270238508634 -1.3417791624454662
lfemur -24.388891114853926 2.705624547939667 -23.33300291264422
ltibia 45.34204265366593
lfoot 1.1323174364986583 -8.734343292531321
ltoes -8.247479580184615
rfemur -16.41958185034117 2.716099891025761 26.981322809705816
rtibia 64.89411820918622
rfoot 4.8999477703893906 -5.628255623161944
rtoes -0.9964970509511089
lowerback 14.363552862539255 1.2083282385673104 1.9999499279294843
upperback -1.194829970032804 2.7838942295424465 1.1314115304551169
thorax -9.176621516566977 0.9090721595163236 -0.12666521058000157
lowerneck -19.88985250194688 -4.409724819298118 -2.4087822817210935
upperneck 12.516107202137773 -5.939182849256257 5.888083557286773
head 7.343938967612842 -2.5893866793626095 1.473822031237457
lclavicle 2.9801515526439752e-15 1.1900897868484632e-16
lhumerus -50.07100469290767 -11.054410440609622 95.4178060187585
lradius 112.6944826259116
lwrist 34.23999475858585
lhand -20.677825458199692 3.113310718537329
lfingers 7.125019999999999
lthumb 5.491455576530975 32.54636601585749
rclavicle 2.9801381671163078e-15 1.1900166246856291e-16
rhumerus -46.016700160836166 13.765641340293747 -97.97634096810894
rradius 110.0794673497202
rwrist -15.161813055852924
rhand -15.794865184329614 38.530141398276164
rfingers 7.125019999999999
rthumb 10.55840196790308 8.42408375686325
108
root 0.6008579406204455 17.729324910562106 32.856695270182435 0.642554934510208 -0.25071655698649065 -1.1761817566871793
lfemur -22.75344788136743 2.8649889892025686 -23.539617490212745
ltibia 46.405214886800096
lfoot 2.1557580568877546 -8.731877539799484
ltoes -8.874820513123966
rfemur -19.045338398615964 2.190889705211176 26.139780585397656
rtibia 65.52271808988411
rfoot 5.215062157177954 -4.907042568346956
rtoes -0.7057103084503806
lowerback 14.494934461688135 1.0906466058508681 1.5413515674099854
upperback -1.084921158059047 2.5512530975546612 1.0472455567556498
thorax -9.327574999502964 0.6833945013611674 -0.3015433839687735
lowerneck -19.890877760223308 -4.345896182965941 -2.422415470723928
upperneck 12.481586786001097 -5.883389557306237 5.859022528701791
head 7.3282430866473955 -2.5636956736083376 1.4663778224373232
lclavicle 2.9801515526439752e-15 1.1900897868484632e-16
lhumerus -47.8137049846834 -10.903382578614872 95.712966883036
lradius 112.7511616126476
lwrist 34.51620997381633
lhand -20.681644123171953 3.14242288663873
lfingers 7.125019999999999
lthumb 5.477595264416184 32.635446535137966
rclavicle 2.9801381671163078e-15 1.1900166246856291e-16
rhumerus -47.08812144174124 13.327839179590239 -98.22369058354694
rradius 110.11881594669971
rwrist -15.147659672929178
rhand -15.802438376388402 38.49563311412958
rfingers 7.125019999999999
rthumb 10.48415567954439 8.375471408207412
109
root 0.5952683106640844 17.679692071213985 32.83899649898565 0.5714021879288698 -0.21682403941295147 -1.0225147879681185
lfemur -20.363921693257893 3.2629739871455756 -23.12840517116742
ltibia 47.197255728763224
lfoot 3.055715654255767 -8.58989906975296
ltoes -9.19870995158928
rfemur -21.18645220524364 1.9224306927047996 25.339300973685603
rtibia 65.5196345058828
rfoot 5.008458775384895 -4.552389908060943
rtoes -0.8412457782352873
lowerback 14.60425112735821 0.9623793925289589 1.104097164615699
upperback -1.042942161443973 2.2525774270744985 0.9201432162458943
thorax -9.220111678323754 0.8020529571181718 0.22480773270342774
lowerneck -19.896791526430928 -4.280547254536238 -2.4318868168544214
upperneck 12.473463858274162 -5.858610440600848 5.802463624620974
head 7.338166624643446 -2.5036154668734865 1.4842194013613033
lclavicle 2.9801515526439752e-15 1.1900897868484632e-16
lhumerus -46.39735966088319 -11.234919916779859 95.7861775318008
lradius 112.72222393352142
lwrist 34.49303204791155
lhand -20.740466680322214 3.032271431111056
lfingers 7.125019999999999
lthumb 5.411518348226554 32.629507929803246
rclavicle 2.9801381671163078e-15 1.1900166246856291e-16
rhumerus -47.80648134082525 13.046155050286345 -98.363746036967
rradius 110.17607429831132
rwrist -15.174380527170829
rhand -15.784017778172007 38.500326868661205
rfingers 7.125019999999999
rthumb 10.475505189283984 8.365776300521475
